<svg xmlns="http://www.w3.org/2000/svg" xmlns:xlink="http://www.w3.org/1999/xlink" width="207" height="46" viewBox="0 0 207 46">
  <defs>
    <clipPath id="clip-path">
      <rect id="Rectangle_1" data-name="Rectangle 1" width="207" height="46" fill="#fff"/>
    </clipPath>
  </defs>
  <g id="Group_3" data-name="Group 3" clip-path="url(#clip-path)">
    <path id="Path_5" data-name="Path 5" d="M57.869,10.761a2.167,2.167,0,0,1,.7-1.562A2.246,2.246,0,0,1,60.229,8.5,2.567,2.567,0,0,1,61.89,9.2a2.166,2.166,0,0,1,.7,1.562V17.27a10.994,10.994,0,0,1,6.644-2.083A10.786,10.786,0,0,1,77.188,18.4a10.845,10.845,0,0,1,0,15.623,11.458,11.458,0,0,1-15.91,0A10.659,10.659,0,0,1,57.956,26.3ZM64.425,30.81a6.79,6.79,0,0,0,9.441,0,6.567,6.567,0,0,0,0-9.287,6.789,6.789,0,0,0-9.441,0A6.192,6.192,0,0,0,62.5,25.342v1.3A5.849,5.849,0,0,0,64.425,30.81Z" fill="#fff"/>
    <path id="Path_6" data-name="Path 6" d="M87.241,12.932a2.566,2.566,0,0,1-1.661-.694,2.095,2.095,0,0,1,0-3.125,2.246,2.246,0,0,1,1.661-.694,2.567,2.567,0,0,1,1.661.694,2.095,2.095,0,0,1,0,3.125A2.4,2.4,0,0,1,87.241,12.932Zm0,24.3a2.566,2.566,0,0,1-1.661-.694,2.166,2.166,0,0,1-.7-1.562V17.272a2.166,2.166,0,0,1,.7-1.562,2.245,2.245,0,0,1,1.661-.694,2.566,2.566,0,0,1,1.661.694,2.166,2.166,0,0,1,.7,1.562V34.977a2.166,2.166,0,0,1-.7,1.562A2.246,2.246,0,0,1,87.241,37.234Z" fill="#fff"/>
    <path id="Path_7" data-name="Path 7" d="M99.3,15.017V10.851a2.167,2.167,0,0,1,.7-1.562,2.247,2.247,0,0,1,1.661-.694,2.566,2.566,0,0,1,1.661.694,2.167,2.167,0,0,1,.7,1.562v4.166h2.535a2.566,2.566,0,0,1,1.66.694,2.093,2.093,0,0,1,0,3.124,2.244,2.244,0,0,1-1.66.694h-2.535V34.892a2.167,2.167,0,0,1-.7,1.562,2.245,2.245,0,0,1-1.661.694A2.568,2.568,0,0,1,100,36.455a2.167,2.167,0,0,1-.7-1.562V19.53H96.682a2.567,2.567,0,0,1-1.661-.694,2.095,2.095,0,0,1,0-3.124,2.246,2.246,0,0,1,1.661-.694Z" fill="#fff"/>
    <path id="Path_8" data-name="Path 8" d="M117.923,15.1a2.116,2.116,0,0,1,1.574.608,2.3,2.3,0,0,1,0,3.125,2.2,2.2,0,0,1-1.574.694.853.853,0,0,0-.786.347,1.1,1.1,0,0,0-.35.781.842.842,0,0,0,.35.781,1.3,1.3,0,0,0,.786.347,7.9,7.9,0,0,1,5.6,2.257,7.122,7.122,0,0,1,2.273,5.468,7.439,7.439,0,0,1-2.273,5.468,8.063,8.063,0,0,1-11.189,0,7.118,7.118,0,0,1-2.273-5.468,2.166,2.166,0,0,1,.7-1.562,2.341,2.341,0,0,1,3.147,0,2.084,2.084,0,0,1,.612,1.562,3.193,3.193,0,0,0,.962,2.343,3.39,3.39,0,0,0,2.36.955,3.24,3.24,0,0,0,2.36-.955,2.893,2.893,0,0,0,.962-2.343,3.194,3.194,0,0,0-.962-2.343,3.552,3.552,0,0,0-2.36-.955,5.43,5.43,0,0,1-4.021-1.649,5.037,5.037,0,0,1-1.661-3.906,5.037,5.037,0,0,1,1.661-3.906A5.768,5.768,0,0,1,117.923,15.1Z" fill="#fff"/>
    <path id="Path_9" data-name="Path 9" d="M149.568,18.315a10.845,10.845,0,0,1,0,15.623,11.458,11.458,0,0,1-15.91,0,10.845,10.845,0,0,1,0-15.623,10.787,10.787,0,0,1,7.955-3.211A11.437,11.437,0,0,1,149.568,18.315Zm-7.955,1.3a6.419,6.419,0,0,0-4.72,1.909,6.565,6.565,0,0,0,0,9.287,6.789,6.789,0,0,0,9.44,0,6.326,6.326,0,0,0,1.924-4.687,6.006,6.006,0,0,0-1.924-4.6A6.419,6.419,0,0,0,141.613,19.617Z" fill="#fff"/>
    <path id="Path_10" data-name="Path 10" d="M168.886,15.1a11.606,11.606,0,0,1,7.78,3.3,10.655,10.655,0,0,1,3.322,7.725v8.506a2.548,2.548,0,0,1-.7,1.909,2.246,2.246,0,0,1-1.661.694,2.394,2.394,0,0,1-2.36-2.6v-8.94a5.854,5.854,0,0,0-1.923-4.166,6.423,6.423,0,0,0-4.721-1.909h-.087a6.423,6.423,0,0,0-4.721,1.909,5.854,5.854,0,0,0-1.923,4.166v8.94a2.548,2.548,0,0,1-.7,1.909,2.246,2.246,0,0,1-1.661.694,2.568,2.568,0,0,1-1.661-.694,2.691,2.691,0,0,1-.7-1.909V26.126a10.465,10.465,0,0,1,3.322-7.725,11.606,11.606,0,0,1,7.78-3.3Z" fill="#fff"/>
    <path id="Path_11" data-name="Path 11" d="M202.367,35.065a11,11,0,0,1-6.644,2.083,10.787,10.787,0,0,1-7.955-3.211,10.847,10.847,0,0,1,0-15.623,11.459,11.459,0,0,1,15.91,0A10.659,10.659,0,0,1,207,26.126v9.113a10.423,10.423,0,0,1-3.322,7.551A10.786,10.786,0,0,1,195.723,46h-.087a2.566,2.566,0,0,1-1.661-.694,1.877,1.877,0,0,1-.7-1.562,2.166,2.166,0,0,1,.7-1.562,2.245,2.245,0,0,1,1.661-.694h.349a6.925,6.925,0,0,0,4.546-1.91A6.2,6.2,0,0,0,202.367,35.065ZM195.723,19.53A6.419,6.419,0,0,0,191,21.439a6.567,6.567,0,0,0,0,9.287,6.79,6.79,0,0,0,9.441,0,6.329,6.329,0,0,0,1.923-4.687,6.009,6.009,0,0,0-1.923-4.6A6.782,6.782,0,0,0,195.723,19.53Z" fill="#fff"/>
    <path id="Path_12" data-name="Path 12" d="M23.253,0a21.637,21.637,0,0,0-5.245.608V29.076a1.059,1.059,0,0,1-1.049,1.042h-2.1a.781.781,0,0,1-.787-.781V1.823A22.831,22.831,0,0,0,0,22.826,23.089,23.089,0,0,0,23.34,45.74,23,23,0,0,0,46.592,22.913,23.2,23.2,0,0,0,23.253,0Zm-.437,32.374a.967.967,0,0,1-.962.955h-2.1a.967.967,0,0,1-.962-.955V17.879a.967.967,0,0,1,.962-.955h2.1a.967.967,0,0,1,.962.955Zm4.72,1.389a.967.967,0,0,1-.962.955h-2.1a.967.967,0,0,1-.962-.955V16.491a.967.967,0,0,1,.962-.955h2.1a.967.967,0,0,1,.962.955Zm4.72-2.6a.967.967,0,0,1-.962.955H29.2a.967.967,0,0,1-.962-.955V19.268a.967.967,0,0,1,.962-.955h2.1a.967.967,0,0,1,.962.955Z" fill="#ff005c"/>
  </g>
</svg>
